<svg width="967" height="1110" viewBox="0 0 967 1110" fill="none" xmlns="http://www.w3.org/2000/svg">
<path opacity="0.5" d="M318.635 35.6942C198.697 136.217 180.111 326.298 98.8809 466.527C70.6041 515.322 34.0667 558.992 15.0036 613.123C-28.7619 737.026 31.472 877.572 112.093 975.981C150.536 1022.93 195.44 1065.94 249.77 1085.72C291.55 1100.94 336.348 1101.57 380.325 1101.97L1150.79 1109.9C1236.81 1110.77 1332.39 1107.62 1394.24 1041.21C1436.87 995.478 1454.18 928.692 1468.88 864.944C1486.93 786.613 1503.3 701.546 1475.2 626.94C1443.11 541.582 1361.96 493.21 1311.55 419.555C1229.74 300.223 1231.62 119.731 1127.44 24.4664C1078.8 -19.9959 1014.62 -37.4321 952.083 -46.1502C834.184 -62.6089 722.506 -31.5408 606.725 -35.8734C507.756 -39.572 400.739 -33.1259 318.635 35.6942Z" fill="#E7ECFF"/>
<path opacity="0.24" d="M560.078 931.613C513.629 936.283 465.755 941.419 424.881 964.264C419.41 967.328 413.856 970.942 410.837 976.458C404.78 987.553 411.655 1002.18 422.324 1008.86C432.993 1015.53 446.156 1016.29 458.712 1016.84C682.279 1026.59 906.181 1022.76 1129.94 1018.96C1194.92 1017.86 1260.92 1016.59 1323.19 997.718C1334.39 994.337 1346.69 989.265 1350.9 978.212C1356.42 963.757 1343.84 947.737 1329.17 943.236C1314.5 938.735 1298.84 942.095 1283.66 944.06C1230.97 950.886 1177.81 940.446 1125.35 932.099C1022.64 915.784 916.075 902.512 812.047 900.039C776.581 899.215 746.293 911.515 711.582 916.376C661.465 923.434 610.467 926.541 560.078 931.613Z" fill="#505F98"/>
<path d="M377.369 498.326L493.198 262.408L562.185 296.19L446.355 532.108L377.369 498.326Z" fill="white"/>
<path d="M404.214 491.055L418.327 462.22L464.791 484.903L450.678 513.738L404.214 491.055Z" fill="#505F98"/>
<path d="M404.214 491.055L418.327 462.22L464.791 484.903L450.678 513.738L404.214 491.055Z" fill="url(#paint0_linear_108_1327)"/>
<path d="M418.329 462.445L432.443 433.61L478.907 456.293L464.794 485.128L418.329 462.445Z" fill="#505F98"/>
<path d="M418.329 462.445L432.443 433.61L478.907 456.293L464.794 485.128L418.329 462.445Z" fill="url(#paint1_linear_108_1327)"/>
<path d="M432.426 433.826L446.54 404.991L493.004 427.674L478.89 456.509L432.426 433.826Z" fill="#505F98"/>
<path d="M432.426 433.826L446.54 404.991L493.004 427.674L478.89 456.509L432.426 433.826Z" fill="url(#paint2_linear_108_1327)"/>
<path d="M446.563 405.237L460.676 376.402L507.14 399.085L493.027 427.92L446.563 405.237Z" fill="#505F98"/>
<path d="M446.563 405.237L460.676 376.402L507.14 399.085L493.027 427.92L446.563 405.237Z" fill="url(#paint3_linear_108_1327)"/>
<path d="M460.668 376.599L474.782 347.764L521.246 370.447L507.133 399.282L460.668 376.599Z" fill="#505F98"/>
<path d="M474.784 348.01L488.897 319.175L535.362 341.858L521.248 370.693L474.784 348.01Z" fill="#505F98"/>
<path d="M488.881 319.391L502.994 290.556L549.458 313.239L535.345 342.074L488.881 319.391Z" fill="#505F98"/>
<path d="M473.196 351.598L487.309 322.763L533.774 345.446L519.66 374.281L473.196 351.598Z" fill="url(#paint4_linear_108_1327)"/>
<path d="M487.321 322.97L501.434 294.135L547.898 316.817L533.785 345.652L487.321 322.97Z" fill="url(#paint5_linear_108_1327)"/>
<rect x="787.837" y="816" width="98.0679" height="82" fill="#505F98"/>
<rect x="787.837" y="816" width="98.0679" height="82" fill="url(#paint6_linear_108_1327)"/>
<rect x="579.693" y="474" width="518.359" height="355" rx="9.37" fill="#505F98"/>
<path opacity="0.65" d="M1081.04 503.438V797.562C1081.06 802.443 1079.13 807.129 1075.69 810.588C1072.25 814.047 1067.58 815.994 1062.7 816H611.039C606.165 815.989 601.494 814.04 598.056 810.582C594.617 807.125 592.691 802.441 592.702 797.562V503.438C592.691 498.559 594.617 493.875 598.056 490.418C601.494 486.96 606.165 485.011 611.039 485H1062.7C1067.58 485.006 1072.25 486.953 1075.69 490.412C1079.13 493.871 1081.06 498.557 1081.04 503.438V503.438Z" fill="url(#paint7_linear_108_1327)"/>
<rect x="742.806" y="888" width="206.143" height="21" fill="#505F98"/>
<rect x="787.837" y="876" width="98.0679" height="12" fill="url(#paint8_linear_108_1327)"/>
<path fill-rule="evenodd" clip-rule="evenodd" d="M942.945 302.241V322.715L930.235 322.819C928.999 332.346 925.375 341.41 919.697 349.181L930.552 360.351L915.672 374.6L904.986 363.578C898.397 368.062 890.962 371.17 883.13 372.714V386H862.559V373.029C853.774 371.76 845.402 368.497 838.089 363.494L829.153 372.316L814.589 357.647L823.462 348.993C817.876 341.219 814.313 332.191 813.092 322.715H798.845V302.241H813.598C815.427 294.093 819.024 286.441 824.136 279.819L815.896 271.332L830.776 257.082L839.206 265.82C846.176 261.214 854.1 258.228 862.39 257.082V243H882.961V257.396C891.33 259.055 899.239 262.493 906.145 267.476L916.683 257.166L931.163 271.709L920.625 282.187C924.756 288.267 927.689 295.073 929.266 302.241H942.945ZM836.803 315.15C836.78 334.211 852.303 349.682 871.474 349.705C880.686 349.733 889.529 346.113 896.051 339.644C902.572 333.176 906.235 324.392 906.229 315.233C906.253 296.172 890.73 280.701 871.559 280.678C852.387 280.655 836.827 296.088 836.803 315.15Z" fill="#505F98"/>
<path fill-rule="evenodd" clip-rule="evenodd" d="M1019 336.354L1018.08 348.396L1010.57 347.938C1009.44 353.475 1006.94 358.641 1003.28 362.958L1009.15 370.021L999.798 377.729L994.039 370.792C989.984 373.13 985.498 374.625 980.85 375.188L980.245 383L968.204 382.104L968.788 374.479C963.703 373.344 958.947 371.056 954.89 367.792L949.256 372.583L941.388 363.396L946.96 358.688C944.032 353.876 942.346 348.414 942.056 342.792L933.938 342.167L934.836 330.146L943.454 330.792C944.878 326.085 947.305 321.743 950.57 318.062L946.125 312.708L955.474 305L960.003 310.5C964.274 308.095 969.029 306.672 973.922 306.333L974.548 298L986.589 298.896L985.942 307.375C990.749 308.714 995.207 311.081 999.005 314.312L1005.62 308.708L1013.47 317.896L1006.79 323.583C1008.96 327.339 1010.37 331.477 1010.96 335.771L1019 336.354ZM956.3 339.243C955.445 350.436 963.837 360.203 975.049 361.062C980.443 361.487 985.784 359.747 989.889 356.228C993.994 352.708 996.524 347.7 996.919 342.312C997.761 331.119 989.358 321.361 978.146 320.514C966.934 319.666 957.155 328.05 956.3 339.243Z" fill="#505F98"/>
<path d="M1081.04 503.513V510H592.702V503.513C592.691 498.614 594.617 493.912 598.056 490.44C601.495 486.968 606.166 485.011 611.041 485H1062.7C1067.58 485.006 1072.25 486.961 1075.69 490.434C1079.13 493.907 1081.06 498.613 1081.04 503.513V503.513Z" fill="url(#paint9_linear_108_1327)"/>
<rect x="602.709" y="542" width="47.0326" height="227" fill="url(#paint10_linear_108_1327)"/>
<rect x="720.791" y="558" width="221.153" height="209" fill="url(#paint11_linear_108_1327)"/>
<rect x="771.826" y="656" width="7.00485" height="9" fill="url(#paint12_linear_108_1327)"/>
<rect x="771.826" y="614" width="7.00485" height="9" fill="url(#paint13_linear_108_1327)"/>
<rect x="676.76" y="656" width="7.00485" height="9" fill="url(#paint14_linear_108_1327)"/>
<rect x="676.76" y="614" width="7.00485" height="9" fill="url(#paint15_linear_108_1327)"/>
<rect x="771.826" y="569" width="7.00485" height="9" fill="url(#paint16_linear_108_1327)"/>
<rect x="677.761" y="569" width="7.00485" height="9" fill="url(#paint17_linear_108_1327)"/>
<rect x="725.794" y="569" width="7.00485" height="9" fill="url(#paint18_linear_108_1327)"/>
<rect x="725.794" y="656" width="7.00485" height="9" fill="url(#paint19_linear_108_1327)"/>
<path fill-rule="evenodd" clip-rule="evenodd" d="M689.769 654H767.823V581H689.769V654ZM759.961 646.282H697.631V588.656H759.961V646.282Z" fill="#505F98"/>
<path fill-rule="evenodd" clip-rule="evenodd" d="M689.769 654H767.823V581H689.769V654ZM759.961 646.282H697.631V588.656H759.961V646.282Z" fill="url(#paint20_linear_108_1327)"/>
<rect opacity="0.65" x="602.709" y="541" width="47.0326" height="13" fill="url(#paint21_linear_108_1327)"/>
<path d="M399.673 472.827L604.801 308.293L652.914 368.118L447.785 532.652L399.673 472.827Z" fill="white"/>
<path d="M428.396 477.455L453.464 457.235L486.046 497.522L460.979 517.742L428.396 477.455Z" fill="#505F98"/>
<path d="M428.396 477.455L453.464 457.235L486.046 497.522L460.979 517.742L428.396 477.455Z" fill="url(#paint22_linear_108_1327)"/>
<path d="M452.014 457.689L477.047 437.56L509.481 477.79L484.449 497.919L452.014 457.689Z" fill="#505F98"/>
<path d="M452.014 457.689L477.047 437.56L509.481 477.79L484.449 497.919L452.014 457.689Z" fill="url(#paint23_linear_108_1327)"/>
<path d="M476.958 437.761L501.99 417.633L534.425 457.863L509.393 477.991L476.958 437.761Z" fill="#505F98"/>
<path d="M476.958 437.761L501.99 417.633L534.425 457.863L509.393 477.991L476.958 437.761Z" fill="url(#paint24_linear_108_1327)"/>
<path d="M501.886 417.847L526.918 397.718L559.353 437.948L534.321 458.077L501.886 417.847Z" fill="#505F98"/>
<path d="M501.886 417.847L526.918 397.718L559.353 437.948L534.321 458.077L501.886 417.847Z" fill="url(#paint25_linear_108_1327)"/>
<path d="M528.006 397.389L553.073 377.169L585.656 417.456L560.588 437.676L528.006 397.389Z" fill="#505F98"/>
<path d="M553.086 376.99L578.154 356.77L610.736 397.057L585.668 417.277L553.086 376.99Z" fill="#505F98"/>
<path d="M576.693 358.051L601.726 337.923L634.161 378.153L609.128 398.281L576.693 358.051Z" fill="#505F98"/>
<path d="M606.712 401.218L585.613 418L553.675 377.782L574.774 361L606.712 401.218V401.218Z" fill="url(#paint26_linear_108_1327)"/>
<path d="M573.736 360.648L598.768 340.519L631.203 380.749L606.171 400.878L573.736 360.648Z" fill="url(#paint27_linear_108_1327)"/>
<path d="M522.653 482.15V605H501.639V482.15C501.639 477.61 504.457 473.57 508.657 472.089V459.825C508.657 457.712 510.333 456 512.4 456C514.468 456 516.144 457.712 516.144 459.825V472.297C520.063 473.935 522.632 477.823 522.653 482.15V482.15Z" fill="#505F98"/>
<path d="M522.653 482.15V605H501.639V482.15C501.639 477.61 504.457 473.57 508.657 472.089V459.825C508.657 457.712 510.333 456 512.4 456C514.468 456 516.144 457.712 516.144 459.825V472.297C520.063 473.935 522.632 477.823 522.653 482.15V482.15Z" fill="url(#paint28_linear_108_1327)"/>
<rect x="488.63" y="560" width="50.0346" height="9" rx="2.245" fill="#505F98"/>
<path d="M513.336 642V642C504.763 642 497.636 629.185 497.636 620.634V564H528.658V620.634C528.658 629.185 521.887 642 513.336 642Z" fill="#505F98"/>
<rect x="488.63" y="560" width="50.0346" height="9" rx="2.245" fill="url(#paint29_linear_108_1327)"/>
<path d="M513.336 642V642C504.763 642 497.636 629.366 497.636 620.937V569H528.658V620.937C528.658 629.366 521.887 642 513.336 642Z" fill="url(#paint30_linear_108_1327)"/>
<path d="M713.428 702C712.754 698.436 712.329 693.39 713.623 693.043C716.351 692.275 713.428 702 713.428 702Z" fill="#28353D"/>
<path d="M856.687 897.507C856.201 910.102 846.439 956.388 846.122 969.004C846.122 973.202 847.242 979.647 845.889 983.698C843.1 992.284 833.211 991.108 831.922 986.049L831.436 983.53C826.85 959.012 834.225 931.198 831.436 899.186C829.766 879.643 821.99 841.963 816.898 841.711C814.214 841.711 752.957 970.851 747.632 978.807C745.011 982.817 737.637 982.187 734.066 985.42C730.495 988.652 763.818 887.515 777.785 834.07C781.043 823.039 783.167 811.709 784.124 800.252C784.505 793.64 782.37 791.415 788.477 789.463C792.703 788.119 798.557 788.497 803.078 788.182C808.002 787.804 853.792 787.72 853.792 790.953C853.348 808.502 857.87 868.412 856.687 897.507Z" fill="#606161"/>
<path d="M856.687 897.507C856.201 910.102 846.439 956.388 846.122 969.004C846.122 973.202 847.242 979.647 845.889 983.698C843.1 992.284 833.211 991.108 831.922 986.049L831.436 983.53C826.85 959.012 834.225 931.198 831.436 899.186C829.766 879.643 821.99 841.963 816.898 841.711C814.214 841.711 752.957 970.851 747.632 978.807C745.011 982.817 737.637 982.187 734.066 985.42C730.495 988.652 763.818 887.515 777.785 834.07C781.043 823.039 783.167 811.709 784.124 800.252C784.505 793.64 782.37 791.415 788.477 789.463C792.703 788.119 798.557 788.497 803.078 788.182C808.002 787.804 853.792 787.72 853.792 790.953C853.348 808.502 857.87 868.412 856.687 897.507Z" fill="url(#paint31_linear_108_1327)"/>
<path d="M802.614 629.148C802.229 625.163 800.346 623 798.506 623C796.667 623 795.533 625.12 795.918 629.148C796.005 632.122 798.249 634.597 801.223 635C803.085 635 803.02 633.134 802.614 629.148Z" fill="#FFCD9C"/>
<path d="M835.008 629.159C835.258 625.166 837.095 623 838.994 623C840.893 623 842.124 625.124 841.832 629.159C841.805 632.173 839.56 634.687 836.615 635C834.736 635 834.715 633.152 835.008 629.159Z" fill="#FFCD9C"/>
<path d="M838.732 646.672C838.473 648.777 829.558 658 819.413 658C809.267 658 800.892 649.577 799.122 646.208C797.352 642.839 804.475 599.505 808.598 595.884C812.721 592.262 829.429 594.641 830.832 596.558C834.199 601.085 839.833 638.27 838.732 646.672Z" fill="#F4AD7D"/>
<path d="M834.538 613.977C833.159 614.639 827.743 600.842 826.607 598.525C825.472 596.208 825.654 593.829 827.033 593.167C828.413 592.505 830.441 593.871 831.577 596.167C832.713 598.463 835.897 613.336 834.538 613.977Z" fill="#FFCD9C"/>
<path d="M804.168 612.987C802.737 612.501 806.525 598.179 807.351 595.703C808.177 593.228 810.031 591.599 811.381 592.086C812.731 592.573 813.295 594.984 812.469 597.481C811.643 599.977 805.518 613.474 804.168 612.987Z" fill="#FFCD9C"/>
<path d="M809.845 645H831.608L834.87 665.622C823.014 672.005 816.101 671.301 806.85 664.214L809.845 645Z" fill="#F4AD7D"/>
<path d="M818.859 649.13C818.859 648.75 819.764 648.43 820.86 648.43C821.956 648.43 822.861 648.75 822.861 649.13C822.861 649.51 821.98 649.57 820.86 649.57C819.74 649.57 818.859 649.53 818.859 649.13Z" fill="#F4AD7D"/>
<path d="M839.892 639.808C840.716 634.894 842.06 599.708 838.764 595.051C835.469 590.394 815.741 587.381 812.749 588.108C806.05 589.731 807.221 594.517 807.221 594.517C805.23 594.547 803.28 595.084 801.563 596.076C799.265 597.615 794.43 619.79 798.289 636.56C800.023 644.102 806.852 650.66 818.646 650.981C833.171 651.365 838.895 645.896 839.892 639.808Z" fill="#606161"/>
<path d="M812.831 589.762C814.39 588.448 816.41 587.828 818.43 588.041C824.563 588.008 830.647 589.14 836.365 591.376C839.535 592.488 842.414 594.311 844.785 596.708C847.172 599.173 848.271 602.627 847.753 606.034C846.7 611.047 841.438 614.148 839.712 618.97C838.322 622.837 839.312 626.575 839.354 630.463C839.382 633.606 839.156 636.746 838.68 639.852C837.712 645.906 832.176 651.344 817.967 650.983C806.516 650.664 799.885 644.143 798.201 636.644C795.921 624.198 796.519 611.389 799.948 599.215C806.12 600.648 812.434 601.361 818.767 601.339C825.482 601.395 832.178 600.611 838.701 599.002C839.817 605.503 839.796 618.524 839.438 628.253" fill="#606161"/>
<path d="M777.702 661.954C774.268 662.241 770.96 663.384 768.077 665.28C763.139 669.171 762.764 676.43 762.848 682.748C762.678 691.501 763.285 700.252 764.66 708.897C766.139 716.826 768.827 724.441 771.035 732.202C774.516 744.831 776.344 757.862 776.473 770.966C776.473 778.162 776.348 786.07 780.827 791.697C785.723 797.806 794.39 798.998 802.182 799.438C813.245 800.086 824.349 800.17 835.412 799.709C842.829 799.375 850.725 798.643 856.6 794.082C861.288 790.442 872.267 667.288 863.746 664.171C855.225 661.054 846.058 660.259 837.016 659.506C816.745 657.791 797.661 656.431 777.702 661.954Z" fill="#505F98"/>
<path d="M841.521 917.291C840.435 931.255 837.843 982 837.843 982L831.238 981.77C826.702 957.39 833.997 929.732 831.238 897.899C829.586 878.465 821.895 840.996 816.857 840.746C818.362 828.221 826.827 830.1 826.827 830.1C832.984 839.294 838.294 849.026 842.692 859.178C847.729 872.37 842.629 903.263 841.521 917.291Z" fill="url(#paint32_linear_108_1327)"/>
<path d="M717.164 983.024C716.133 983.786 715.35 984.83 714.913 986.025C714.678 987.009 714.773 988.04 715.184 988.965C716.35 991.326 718.56 993.019 721.168 993.55C723.744 994.04 726.383 994.131 728.987 993.818L737.328 993.262C739.45 993.212 741.555 992.873 743.583 992.255C745.614 991.627 747.289 990.198 748.212 988.308C748.704 986.916 748.895 985.438 748.775 983.969C748.775 977.164 746.357 971.634 738.808 973.299C730.902 974.765 723.474 978.102 717.164 983.024V983.024Z" fill="#505F98"/>
<path d="M855.703 986.063C856.65 986.759 857.369 987.709 857.77 988.797C857.984 989.682 857.9 990.611 857.53 991.446C856.468 993.584 854.438 995.114 852.047 995.579C849.69 996.035 847.273 996.121 844.888 995.834L837.316 995.325C835.39 995.284 833.478 994.985 831.636 994.435C829.779 993.864 828.25 992.566 827.415 990.853C826.967 989.595 826.789 988.26 826.893 986.932C826.893 980.785 829.069 975.72 836.01 977.288C843.206 978.619 849.964 981.63 855.703 986.063V986.063Z" fill="#505F98"/>
<path d="M864.891 664C864.891 664 897.606 683.163 907.432 707.389C917.257 731.614 875.252 790 875.252 790L866.263 780.814C866.263 780.814 888.188 736.759 884.799 725.74C881.409 714.721 868.13 704.452 868.13 704.452L864.891 664Z" fill="#505F98"/>
<path d="M771.826 701.859C771.826 701.859 726.338 722.24 707.853 712.238C689.368 702.237 708.398 652 708.398 652L720.777 656.202C720.777 656.202 710.433 681.815 722.267 685.618C734.101 689.421 769.56 664.438 769.56 664.438L771.826 701.859Z" fill="#505F98"/>
<path d="M857.466 788.976C856.158 789.826 855.097 790.968 854.381 792.297C853.952 793.425 853.797 794.629 853.928 795.819C853.849 798.709 855.163 801.479 857.51 803.367C859.158 804.25 861.005 804.76 862.903 804.857C864.066 805.048 865.256 805.048 866.419 804.857C867.606 804.646 868.597 803.888 869.051 802.844C869.206 802.183 869.271 801.507 869.245 800.831C869.396 797.51 871.899 794.793 873.97 792.076C874.47 791.551 874.793 790.9 874.897 790.204C874.885 789.434 874.597 788.69 874.078 788.091C872.675 786.199 869.202 782.717 866.419 783.018C863.636 783.32 859.624 787.326 857.466 788.976Z" fill="#F4AD7D"/>
<path d="M728.585 644.435C729.178 643.611 729.582 642.679 729.772 641.698C729.923 640.683 729.386 639.687 728.431 639.211C726.915 638.647 725.114 640.13 723.62 639.504C723.114 639.235 722.69 638.846 722.389 638.375C720.625 635.945 719.613 633.093 719.467 630.143C719.553 628.571 719.405 626.995 719.028 625.463C718.583 623.886 717 622.849 715.293 623.018C713.886 623.331 713.095 624.689 712.217 625.776C711.338 626.863 709.58 628.158 708.437 629.516C706.487 632.307 705.37 635.55 705.208 638.898C704.592 643.077 704.197 647.861 707.273 650.87C709.646 653.189 716.874 655.927 720.192 654.694C723.861 653.315 726.74 647.444 728.585 644.435Z" fill="#F4AD7D"/>
<defs>
<linearGradient id="paint0_linear_108_1327" x1="528.402" y1="558.166" x2="593.156" y2="429.6" gradientUnits="userSpaceOnUse">
<stop stop-color="#010101" stop-opacity="0.01"/>
<stop offset="0.95" stop-color="#010101"/>
</linearGradient>
<linearGradient id="paint1_linear_108_1327" x1="583.563" y1="554.365" x2="676.417" y2="372.775" gradientUnits="userSpaceOnUse">
<stop stop-color="#010101" stop-opacity="0.01"/>
<stop offset="0.95" stop-color="#010101"/>
</linearGradient>
<linearGradient id="paint2_linear_108_1327" x1="703.545" y1="563.092" x2="840.899" y2="252.948" gradientUnits="userSpaceOnUse">
<stop stop-color="#010101" stop-opacity="0.01"/>
<stop offset="0.95" stop-color="#010101"/>
</linearGradient>
<linearGradient id="paint3_linear_108_1327" x1="831.379" y1="579.583" x2="1036.31" y2="132.179" gradientUnits="userSpaceOnUse">
<stop stop-color="#010101" stop-opacity="0.01"/>
<stop offset="0.36" stop-color="#010101" stop-opacity="0.36"/>
<stop offset="0.95" stop-color="#010101"/>
</linearGradient>
<linearGradient id="paint4_linear_108_1327" x1="682.726" y1="474.564" x2="799.886" y2="232.969" gradientUnits="userSpaceOnUse">
<stop stop-color="white" stop-opacity="0.01"/>
<stop offset="0.07" stop-color="white" stop-opacity="0.22"/>
<stop offset="0.16" stop-color="white" stop-opacity="0.45"/>
<stop offset="0.25" stop-color="white" stop-opacity="0.65"/>
<stop offset="0.33" stop-color="white" stop-opacity="0.8"/>
<stop offset="0.4" stop-color="white" stop-opacity="0.91"/>
<stop offset="0.46" stop-color="white" stop-opacity="0.98"/>
<stop offset="0.51" stop-color="white"/>
</linearGradient>
<linearGradient id="paint5_linear_108_1327" x1="604.65" y1="421.444" x2="668.846" y2="285.555" gradientUnits="userSpaceOnUse">
<stop stop-color="white" stop-opacity="0.01"/>
<stop offset="0.07" stop-color="white" stop-opacity="0.22"/>
<stop offset="0.16" stop-color="white" stop-opacity="0.45"/>
<stop offset="0.25" stop-color="white" stop-opacity="0.65"/>
<stop offset="0.33" stop-color="white" stop-opacity="0.8"/>
<stop offset="0.4" stop-color="white" stop-opacity="0.91"/>
<stop offset="0.46" stop-color="white" stop-opacity="0.98"/>
<stop offset="0.51" stop-color="white"/>
</linearGradient>
<linearGradient id="paint6_linear_108_1327" x1="909.972" y1="884.322" x2="920.393" y2="757.584" gradientUnits="userSpaceOnUse">
<stop stop-color="#010101" stop-opacity="0.01"/>
<stop offset="0.95" stop-color="#010101"/>
</linearGradient>
<linearGradient id="paint7_linear_108_1327" x1="508.259" y1="421.517" x2="505.544" y2="871.071" gradientUnits="userSpaceOnUse">
<stop stop-color="white" stop-opacity="0.01"/>
<stop offset="0.07" stop-color="white" stop-opacity="0.22"/>
<stop offset="0.16" stop-color="white" stop-opacity="0.45"/>
<stop offset="0.25" stop-color="white" stop-opacity="0.65"/>
<stop offset="0.33" stop-color="white" stop-opacity="0.8"/>
<stop offset="0.4" stop-color="white" stop-opacity="0.91"/>
<stop offset="0.46" stop-color="white" stop-opacity="0.98"/>
<stop offset="0.51" stop-color="white"/>
</linearGradient>
<linearGradient id="paint8_linear_108_1327" x1="254.605" y1="859.073" x2="254.705" y2="1001.31" gradientUnits="userSpaceOnUse">
<stop stop-color="#010101" stop-opacity="0.01"/>
<stop offset="0.95" stop-color="#010101"/>
</linearGradient>
<linearGradient id="paint9_linear_108_1327" x1="1407.02" y1="604.966" x2="1441.2" y2="197.855" gradientUnits="userSpaceOnUse">
<stop stop-color="white" stop-opacity="0.01"/>
<stop offset="0.07" stop-color="white" stop-opacity="0.22"/>
<stop offset="0.16" stop-color="white" stop-opacity="0.45"/>
<stop offset="0.25" stop-color="white" stop-opacity="0.65"/>
<stop offset="0.33" stop-color="white" stop-opacity="0.8"/>
<stop offset="0.4" stop-color="white" stop-opacity="0.91"/>
<stop offset="0.46" stop-color="white" stop-opacity="0.98"/>
<stop offset="0.51" stop-color="white"/>
</linearGradient>
<linearGradient id="paint10_linear_108_1327" x1="580.138" y1="494.87" x2="718.145" y2="863.142" gradientUnits="userSpaceOnUse">
<stop stop-color="white" stop-opacity="0.01"/>
<stop offset="0.07" stop-color="white" stop-opacity="0.22"/>
<stop offset="0.16" stop-color="white" stop-opacity="0.45"/>
<stop offset="0.25" stop-color="white" stop-opacity="0.65"/>
<stop offset="0.33" stop-color="white" stop-opacity="0.8"/>
<stop offset="0.4" stop-color="white" stop-opacity="0.91"/>
<stop offset="0.46" stop-color="white" stop-opacity="0.98"/>
<stop offset="0.51" stop-color="white"/>
</linearGradient>
<linearGradient id="paint11_linear_108_1327" x1="683.668" y1="517.99" x2="680.343" y2="800.698" gradientUnits="userSpaceOnUse">
<stop stop-color="white" stop-opacity="0.01"/>
<stop offset="0.07" stop-color="white" stop-opacity="0.22"/>
<stop offset="0.16" stop-color="white" stop-opacity="0.45"/>
<stop offset="0.25" stop-color="white" stop-opacity="0.65"/>
<stop offset="0.33" stop-color="white" stop-opacity="0.8"/>
<stop offset="0.4" stop-color="white" stop-opacity="0.91"/>
<stop offset="0.46" stop-color="white" stop-opacity="0.98"/>
<stop offset="0.51" stop-color="white"/>
</linearGradient>
<linearGradient id="paint12_linear_108_1327" x1="999.503" y1="709.704" x2="1018.69" y2="131.785" gradientUnits="userSpaceOnUse">
<stop stop-color="#010101" stop-opacity="0.01"/>
<stop offset="0.95" stop-color="#010101"/>
</linearGradient>
<linearGradient id="paint13_linear_108_1327" x1="998.651" y1="710.045" x2="1017.84" y2="132.125" gradientUnits="userSpaceOnUse">
<stop stop-color="#010101" stop-opacity="0.01"/>
<stop offset="0.95" stop-color="#010101"/>
</linearGradient>
<linearGradient id="paint14_linear_108_1327" x1="904.472" y1="707.354" x2="923.688" y2="129.435" gradientUnits="userSpaceOnUse">
<stop stop-color="#010101" stop-opacity="0.01"/>
<stop offset="0.95" stop-color="#010101"/>
</linearGradient>
<linearGradient id="paint15_linear_108_1327" x1="903.62" y1="707.694" x2="922.836" y2="129.776" gradientUnits="userSpaceOnUse">
<stop stop-color="#010101" stop-opacity="0.01"/>
<stop offset="0.95" stop-color="#010101"/>
</linearGradient>
<linearGradient id="paint16_linear_108_1327" x1="997.712" y1="711.545" x2="1016.93" y2="133.627" gradientUnits="userSpaceOnUse">
<stop stop-color="#010101" stop-opacity="0.01"/>
<stop offset="0.95" stop-color="#010101"/>
</linearGradient>
<linearGradient id="paint17_linear_108_1327" x1="903.682" y1="709.236" x2="922.87" y2="131.317" gradientUnits="userSpaceOnUse">
<stop stop-color="#010101" stop-opacity="0.01"/>
<stop offset="0.95" stop-color="#010101"/>
</linearGradient>
<linearGradient id="paint18_linear_108_1327" x1="951.672" y1="710.396" x2="970.888" y2="132.499" gradientUnits="userSpaceOnUse">
<stop stop-color="#010101" stop-opacity="0.01"/>
<stop offset="0.95" stop-color="#010101"/>
</linearGradient>
<linearGradient id="paint19_linear_108_1327" x1="953.488" y1="707.843" x2="972.704" y2="129.925" gradientUnits="userSpaceOnUse">
<stop stop-color="#010101" stop-opacity="0.01"/>
<stop offset="0.95" stop-color="#010101"/>
</linearGradient>
<linearGradient id="paint20_linear_108_1327" x1="608.41" y1="722.399" x2="840.643" y2="939.094" gradientUnits="userSpaceOnUse">
<stop stop-color="white" stop-opacity="0.01"/>
<stop offset="0.07" stop-color="white" stop-opacity="0.22"/>
<stop offset="0.16" stop-color="white" stop-opacity="0.45"/>
<stop offset="0.25" stop-color="white" stop-opacity="0.65"/>
<stop offset="0.33" stop-color="white" stop-opacity="0.8"/>
<stop offset="0.4" stop-color="white" stop-opacity="0.91"/>
<stop offset="0.46" stop-color="white" stop-opacity="0.98"/>
<stop offset="0.51" stop-color="white"/>
</linearGradient>
<linearGradient id="paint21_linear_108_1327" x1="593.437" y1="538.281" x2="593.42" y2="556.481" gradientUnits="userSpaceOnUse">
<stop stop-color="white" stop-opacity="0.01"/>
<stop offset="0.07" stop-color="white" stop-opacity="0.22"/>
<stop offset="0.16" stop-color="white" stop-opacity="0.45"/>
<stop offset="0.25" stop-color="white" stop-opacity="0.65"/>
<stop offset="0.33" stop-color="white" stop-opacity="0.8"/>
<stop offset="0.4" stop-color="white" stop-opacity="0.91"/>
<stop offset="0.46" stop-color="white" stop-opacity="0.98"/>
<stop offset="0.51" stop-color="white"/>
</linearGradient>
<linearGradient id="paint22_linear_108_1327" x1="512.737" y1="591.052" x2="626.168" y2="501.635" gradientUnits="userSpaceOnUse">
<stop stop-color="#010101" stop-opacity="0.01"/>
<stop offset="0.95" stop-color="#010101"/>
</linearGradient>
<linearGradient id="paint23_linear_108_1327" x1="562.575" y1="610.988" x2="723.852" y2="485.867" gradientUnits="userSpaceOnUse">
<stop stop-color="#010101" stop-opacity="0.01"/>
<stop offset="0.95" stop-color="#010101"/>
</linearGradient>
<linearGradient id="paint24_linear_108_1327" x1="667.519" y1="669.751" x2="923.684" y2="447.028" gradientUnits="userSpaceOnUse">
<stop stop-color="#010101" stop-opacity="0.01"/>
<stop offset="0.95" stop-color="#010101"/>
</linearGradient>
<linearGradient id="paint25_linear_108_1327" x1="776.279" y1="738.865" x2="1151.96" y2="420.45" gradientUnits="userSpaceOnUse">
<stop stop-color="#010101" stop-opacity="0.01"/>
<stop offset="0.36" stop-color="#010101" stop-opacity="0.36"/>
<stop offset="0.95" stop-color="#010101"/>
</linearGradient>
<linearGradient id="paint26_linear_108_1327" x1="624.537" y1="501.751" x2="807.477" y2="370.322" gradientUnits="userSpaceOnUse">
<stop stop-color="white" stop-opacity="0.01"/>
<stop offset="0.07" stop-color="white" stop-opacity="0.22"/>
<stop offset="0.16" stop-color="white" stop-opacity="0.45"/>
<stop offset="0.25" stop-color="white" stop-opacity="0.65"/>
<stop offset="0.33" stop-color="white" stop-opacity="0.8"/>
<stop offset="0.4" stop-color="white" stop-opacity="0.91"/>
<stop offset="0.46" stop-color="white" stop-opacity="0.98"/>
<stop offset="0.51" stop-color="white"/>
</linearGradient>
<linearGradient id="paint27_linear_108_1327" x1="638.151" y1="499.517" x2="754.009" y2="403.658" gradientUnits="userSpaceOnUse">
<stop stop-color="white" stop-opacity="0.01"/>
<stop offset="0.07" stop-color="white" stop-opacity="0.22"/>
<stop offset="0.16" stop-color="white" stop-opacity="0.45"/>
<stop offset="0.25" stop-color="white" stop-opacity="0.65"/>
<stop offset="0.33" stop-color="white" stop-opacity="0.8"/>
<stop offset="0.4" stop-color="white" stop-opacity="0.91"/>
<stop offset="0.46" stop-color="white" stop-opacity="0.98"/>
<stop offset="0.51" stop-color="white"/>
</linearGradient>
<linearGradient id="paint28_linear_108_1327" x1="503.738" y1="665.745" x2="541.923" y2="665.767" gradientUnits="userSpaceOnUse">
<stop stop-color="white" stop-opacity="0.01"/>
<stop offset="0.07" stop-color="white" stop-opacity="0.22"/>
<stop offset="0.16" stop-color="white" stop-opacity="0.45"/>
<stop offset="0.25" stop-color="white" stop-opacity="0.65"/>
<stop offset="0.33" stop-color="white" stop-opacity="0.8"/>
<stop offset="0.4" stop-color="white" stop-opacity="0.91"/>
<stop offset="0.46" stop-color="white" stop-opacity="0.98"/>
<stop offset="0.51" stop-color="white"/>
</linearGradient>
<linearGradient id="paint29_linear_108_1327" x1="430.446" y1="568.2" x2="442.097" y2="606.932" gradientUnits="userSpaceOnUse">
<stop stop-color="#010101" stop-opacity="0.01"/>
<stop offset="0.95" stop-color="#010101"/>
</linearGradient>
<linearGradient id="paint30_linear_108_1327" x1="455.244" y1="716.933" x2="556.146" y2="718.976" gradientUnits="userSpaceOnUse">
<stop stop-color="#010101" stop-opacity="0.01"/>
<stop offset="0.95" stop-color="#010101"/>
</linearGradient>
<linearGradient id="paint31_linear_108_1327" x1="858.015" y1="874.512" x2="761.922" y2="709.732" gradientUnits="userSpaceOnUse">
<stop stop-color="#010101" stop-opacity="0.01"/>
<stop offset="0.95" stop-color="#010101"/>
</linearGradient>
<linearGradient id="paint32_linear_108_1327" x1="859.037" y1="412.892" x2="686.151" y2="417.761" gradientUnits="userSpaceOnUse">
<stop stop-color="#010101" stop-opacity="0.01"/>
<stop offset="0.95" stop-color="#010101"/>
</linearGradient>
</defs>
</svg>
